<?xml version="1.0" encoding="utf-8"?>
<!-- Generator: Adobe Illustrator 16.0.0, SVG Export Plug-In . SVG Version: 6.00 Build 0)  -->
<!DOCTYPE svg PUBLIC "-//W3C//DTD SVG 1.1//EN" "http://www.w3.org/Graphics/SVG/1.1/DTD/svg11.dtd">
<svg version="1.1" id="Layer_1" xmlns="http://www.w3.org/2000/svg" xmlns:xlink="http://www.w3.org/1999/xlink" x="0px" y="0px"
	 width="1706.817px" height="505px" viewBox="0 0 1706.817 505" enable-background="new 0 0 1706.817 505" xml:space="preserve">
<g>
	<g>
		<linearGradient id="SVGID_1_" gradientUnits="userSpaceOnUse" x1="347.2969" y1="213.3276" x2="169.5621" y2="466.5999">
			<stop  offset="0" style="stop-color:#752878"/>
			<stop  offset="1" style="stop-color:#302152"/>
		</linearGradient>
		<path fill="url(#SVGID_1_)" d="M463.865,484.626c-4.773,0-9.434-2.057-12.662-5.834c-5.926-6.924-10.68-12.869-14.488-17.641
			c-10.533-13.18-13.295-16.16-18.582-17.801c-8.232-2.559-24.395-2.512-53.74-2.412c-6.078,0.016-215.753,0.039-215.753,0.039
			c-63.146,0-114.52-51.377-114.52-114.527v-80.587c0-28.442,10.586-55.75,29.82-76.902c13.987-15.391,31.494-26.524,51.038-32.549
			c9.657-53.44,56.521-94.106,112.701-94.106H423.4c63.145,0,114.52,51.374,114.52,114.527v123.022
			c0,9.206-7.461,16.663-16.664,16.663c-9.201,0-16.662-7.457-16.662-16.663V156.833c0-44.776-36.426-81.201-81.193-81.201H227.677
			c-44.775,0-81.2,36.424-81.2,81.201v80.587c0,44.769,36.425,81.193,81.2,81.193h236.188c9.201,0,16.662,7.462,16.662,16.663
			v132.686c0,6.979-4.344,13.213-10.895,15.629C467.753,484.29,465.796,484.626,463.865,484.626z M377.74,407.581
			c40.234,0,54.314,1.285,69.461,15.297V351.94H227.677c-63.149,0-114.527-51.375-114.527-114.521v-64.547
			c-9.181,4.496-17.493,10.734-24.553,18.502c-13.641,15.009-21.156,34.358-21.156,54.488v80.587
			c0,44.773,36.425,81.201,81.197,81.201C148.639,407.651,373.554,407.581,377.74,407.581z"/>
	</g>
	<linearGradient id="SVGID_2_" gradientUnits="userSpaceOnUse" x1="250.5479" y1="145.4766" x2="50.8351" y2="430.0676">
		<stop  offset="0" style="stop-color:#752878"/>
		<stop  offset="1" style="stop-color:#302152"/>
	</linearGradient>
	<path fill="url(#SVGID_2_)" d="M232.987,197.186c0-10.342-8.384-18.727-18.723-18.727c-10.342,0-18.726,8.385-18.726,18.727
		c0,10.335,8.384,18.72,18.726,18.72C224.603,215.905,232.987,207.521,232.987,197.186z"/>
	<linearGradient id="SVGID_3_" gradientUnits="userSpaceOnUse" x1="324.6836" y1="197.5107" x2="124.9747" y2="482.0962">
		<stop  offset="0" style="stop-color:#752878"/>
		<stop  offset="1" style="stop-color:#302152"/>
	</linearGradient>
	<path fill="url(#SVGID_3_)" d="M343.636,197.186c0-10.342-8.385-18.727-18.721-18.727c-10.348,0-18.725,8.385-18.725,18.727
		c0,10.335,8.377,18.72,18.725,18.72C335.251,215.905,343.636,207.521,343.636,197.186z"/>
	<linearGradient id="SVGID_4_" gradientUnits="userSpaceOnUse" x1="398.8218" y1="249.542" x2="199.1148" y2="534.1248">
		<stop  offset="0" style="stop-color:#752878"/>
		<stop  offset="1" style="stop-color:#302152"/>
	</linearGradient>
	<path fill="url(#SVGID_4_)" d="M454.287,197.186c0-10.342-8.377-18.727-18.719-18.727c-10.344,0-18.727,8.385-18.727,18.727
		c0,10.335,8.383,18.72,18.727,18.72C445.91,215.905,454.287,207.521,454.287,197.186z"/>
</g>
<g>
	<path fill="#742878" d="M771.131,208.699c-7.2-12-27-23.4-49.8-23.4c-29.4,0-43.5,12.3-43.5,27.9c0,18.3,21.6,23.4,46.8,26.4
		c43.801,5.4,84.601,16.8,84.601,66.901c0,46.8-41.4,66.9-88.201,66.9c-42.901,0-75.901-13.2-91.501-51.601l33-17.1
		c9.3,23.101,33.601,33.3,59.101,33.3c24.9,0,48.301-8.7,48.301-31.5c0-19.8-20.7-27.9-48.601-30.9
		c-42.9-5.1-82.501-16.5-82.501-63.601c0-43.201,42.601-60.901,81.301-61.201c32.701,0,66.601,9.3,82.501,41.7L771.131,208.699z"/>
	<path fill="#742878" d="M964.03,349.1c-17.1,16.8-35.1,23.4-57,23.4c-42.9,0-78.601-25.8-78.601-78.301
		s35.701-78.301,78.601-78.301c21,0,37.2,6,53.4,21.9l-23.1,24.3c-8.7-7.8-19.5-11.7-29.7-11.7c-24.601,0-42.601,18-42.601,43.8
		c0,28.2,19.2,43.201,42,43.201c11.7,0,23.4-3.3,32.4-12.3L964.03,349.1z"/>
	<path fill="#742878" d="M1020.126,178.398c0,28.5-43.2,28.5-43.2,0C976.926,149.898,1020.126,149.898,1020.126,178.398z
		 M980.226,219.499V368h36.601V219.499H980.226z"/>
	<path fill="#742878" d="M1237.626,341.6c-21.601,21.3-49.5,31.2-79.801,31.2c-78,0-111.001-53.7-111.301-108.301
		c-0.3-54.9,35.4-110.701,111.301-110.701c28.5,0,55.501,10.8,77.101,32.1l-26.4,25.5c-13.8-13.5-32.4-19.8-50.701-19.8
		c-50.7,0-72.601,37.8-72.3,72.901c0.3,34.8,20.4,71.101,72.3,71.101c18.3,0,39-7.5,52.801-21.3L1237.626,341.6z"/>
	<path fill="#742878" d="M1290.72,157.999v82.201c13.2-17.1,29.4-22.2,46.2-22.2c42,0,60.601,28.5,60.601,72V368h-36.6V290.3
		c0-27-14.1-38.4-33.601-38.4c-21.6,0-36.6,18.3-36.6,40.5V368h-36.601V157.999H1290.72z"/>
	<path fill="#742878" d="M1545.719,220.099h35.101V368h-34.5l-1.8-21.6c-8.4,17.4-31.5,25.8-48,26.1
		c-43.8,0.3-76.201-26.7-76.201-78.601c0-51,33.9-77.701,77.101-77.401c19.8,0,38.7,9.3,47.1,24L1545.719,220.099z M1456.918,293.9
		c0,28.2,19.5,45,43.8,45c57.601,0,57.601-89.701,0-89.701C1476.418,249.199,1456.918,265.699,1456.918,293.9z"/>
	<path fill="#742878" d="M1657.018,178.398v42h40.8v31.5h-41.101v63.9c0,14.1,7.801,21,19.2,21c5.7,0,12.301-1.8,17.7-4.5l10.2,31.2
		c-10.5,4.2-19.2,6-30.3,6.3c-32.101,1.2-53.101-17.1-53.101-54v-63.9h-27.601v-31.5h27.601v-38.1L1657.018,178.398z"/>
</g>
</svg>
